<svg xmlns="http://www.w3.org/2000/svg" width="1960" height="1460" viewBox="0 0 1960 1460" font-family="'Excalifont','Virgil','Chalkboard SE','Comic Sans MS','Comic Neue',sans-serif">
<defs><marker id="arrow" viewBox="0 0 10 10" refX="9" refY="5" markerWidth="7" markerHeight="7" orient="auto-start-reverse"><path d="M0,0 L10,5 L0,10 L3,5 z" fill="#495057"/></marker><marker id="arrowS" viewBox="0 0 10 10" refX="1" refY="5" markerWidth="7" markerHeight="7" orient="auto-start-reverse"><path d="M10,0 L0,5 L10,10 L7,5 z" fill="#495057"/></marker></defs>
<rect x="0" y="0" width="1960" height="1460" fill="#ffffff"/>
<line x1="120" y1="140" x2="120" y2="1370" stroke="#ced4da" stroke-width="1.8" stroke-dasharray="9 7" stroke-linecap="round"/>
<line x1="370" y1="140" x2="370" y2="1370" stroke="#ced4da" stroke-width="1.8" stroke-dasharray="9 7" stroke-linecap="round"/>
<line x1="610" y1="140" x2="610" y2="1370" stroke="#ced4da" stroke-width="1.8" stroke-dasharray="9 7" stroke-linecap="round"/>
<line x1="850" y1="140" x2="850" y2="1370" stroke="#ced4da" stroke-width="1.8" stroke-dasharray="9 7" stroke-linecap="round"/>
<line x1="1080" y1="140" x2="1080" y2="1370" stroke="#ced4da" stroke-width="1.8" stroke-dasharray="9 7" stroke-linecap="round"/>
<line x1="1300" y1="140" x2="1300" y2="1370" stroke="#ced4da" stroke-width="1.8" stroke-dasharray="9 7" stroke-linecap="round"/>
<line x1="1530" y1="140" x2="1530" y2="1370" stroke="#ced4da" stroke-width="1.8" stroke-dasharray="9 7" stroke-linecap="round"/>
<line x1="1770" y1="140" x2="1770" y2="1370" stroke="#ced4da" stroke-width="1.8" stroke-dasharray="9 7" stroke-linecap="round"/>
<rect x="20" y="84" width="200" height="54" rx="10" fill="#e9ecef" stroke="#1e1e1e" stroke-width="2" stroke-dasharray="none"/>
<text x="120.0" y="107.8" font-size="15" font-weight="700" fill="#1e1e1e" text-anchor="middle">Frontend Platform</text>
<text x="120.0" y="123.9" font-size="12.5" font-weight="400" fill="#495057" text-anchor="middle">caller</text>
<rect x="270" y="84" width="200" height="54" rx="10" fill="#d0bfff" stroke="#1e1e1e" stroke-width="2" stroke-dasharray="none"/>
<text x="370.0" y="107.8" font-size="15" font-weight="700" fill="#1e1e1e" text-anchor="middle">CPS</text>
<text x="370.0" y="123.9" font-size="12.5" font-weight="400" fill="#495057" text-anchor="middle">Temporal orchestrator</text>
<rect x="510" y="84" width="200" height="54" rx="10" fill="#96f2d7" stroke="#1e1e1e" stroke-width="2" stroke-dasharray="none"/>
<text x="610.0" y="107.8" font-size="15" font-weight="700" fill="#1e1e1e" text-anchor="middle">HW Inventory Svc</text>
<text x="610.0" y="123.9" font-size="12.5" font-weight="400" fill="#495057" text-anchor="middle">NetBox dcim wrapper</text>
<rect x="750" y="84" width="200" height="54" rx="10" fill="#a5d8ff" stroke="#1e1e1e" stroke-width="2" stroke-dasharray="none"/>
<text x="850.0" y="107.8" font-size="15" font-weight="700" fill="#1e1e1e" text-anchor="middle">NPS</text>
<text x="850.0" y="123.9" font-size="12.5" font-weight="400" fill="#495057" text-anchor="middle">NetBox ipam + Apstra</text>
<rect x="980" y="84" width="200" height="54" rx="10" fill="#96f2d7" stroke="#1e1e1e" stroke-width="2" stroke-dasharray="none"/>
<text x="1080.0" y="107.8" font-size="15" font-weight="700" fill="#1e1e1e" text-anchor="middle">NetBox</text>
<text x="1080.0" y="123.9" font-size="12.5" font-weight="400" fill="#495057" text-anchor="middle">inventory SoR</text>
<rect x="1200" y="84" width="200" height="54" rx="10" fill="#b2f2bb" stroke="#1e1e1e" stroke-width="2" stroke-dasharray="none"/>
<text x="1300.0" y="107.8" font-size="15" font-weight="700" fill="#1e1e1e" text-anchor="middle">Apstra</text>
<text x="1300.0" y="123.9" font-size="12.5" font-weight="400" fill="#495057" text-anchor="middle">fabric controller</text>
<rect x="1430" y="84" width="200" height="54" rx="10" fill="#ffd8a8" stroke="#1e1e1e" stroke-width="2" stroke-dasharray="none"/>
<text x="1530.0" y="107.8" font-size="15" font-weight="700" fill="#1e1e1e" text-anchor="middle">Rafay Controller</text>
<text x="1530.0" y="123.9" font-size="12.5" font-weight="400" fill="#495057" text-anchor="middle">OS + K8s · REST</text>
<rect x="1670" y="84" width="200" height="54" rx="10" fill="#ffd8a8" stroke="#1e1e1e" stroke-width="2" stroke-dasharray="none"/>
<text x="1770.0" y="107.8" font-size="15" font-weight="700" fill="#1e1e1e" text-anchor="middle">Rafay Head</text>
<text x="1770.0" y="123.9" font-size="12.5" font-weight="400" fill="#495057" text-anchor="middle">site agent</text>
<rect x="180.0" y="378" width="380" height="46" rx="10" fill="#ffec99" stroke="#1e1e1e" stroke-width="2" stroke-dasharray="none"/>
<text x="370.0" y="397.8" font-size="15" font-weight="700" fill="#1e1e1e" text-anchor="middle">poll until onboarded</text>
<text x="370.0" y="413.9" font-size="12.5" font-weight="400" fill="#495057" text-anchor="middle">block until success — gates all later steps</text>
<rect x="230.0" y="466" width="280" height="46" rx="10" fill="#ffec99" stroke="#1e1e1e" stroke-width="2" stroke-dasharray="none"/>
<text x="370.0" y="485.8" font-size="15" font-weight="700" fill="#1e1e1e" text-anchor="middle">3   acquire reservation lock</text>
<text x="370.0" y="501.9" font-size="12.5" font-weight="400" fill="#495057" text-anchor="middle">auto-expiry · wait if held</text>
<rect x="180.0" y="628" width="380" height="46" rx="10" fill="#ffec99" stroke="#1e1e1e" stroke-width="2" stroke-dasharray="none"/>
<text x="370.0" y="647.8" font-size="15" font-weight="700" fill="#1e1e1e" text-anchor="middle">5   schedule / select subset</text>
<text x="370.0" y="663.9" font-size="12.5" font-weight="400" fill="#495057" text-anchor="middle">GPU match · RDMA locality · CP anti-affinity</text>
<rect x="240.0" y="790" width="260" height="32" rx="10" fill="#ffec99" stroke="#1e1e1e" stroke-width="2" stroke-dasharray="none"/>
<text x="370.0" y="811.2" font-size="15" font-weight="700" fill="#1e1e1e" text-anchor="middle">7   release reservation lock</text>
<rect x="200.0" y="1106" width="340" height="46" rx="10" fill="#ffec99" stroke="#1e1e1e" stroke-width="2" stroke-dasharray="none"/>
<text x="370.0" y="1125.8" font-size="15" font-weight="700" fill="#1e1e1e" text-anchor="middle">11   preflight check</text>
<text x="370.0" y="1141.9" font-size="12.5" font-weight="400" fill="#495057" text-anchor="middle">health · reachability on reserved nodes</text>
<line x1="120" y1="178" x2="370" y2="178" stroke="#495057" stroke-width="2.2" marker-end="url(#arrow)"/>
<rect x="81.6" y="152.0" width="326.8" height="20" rx="5" fill="#ffffff" stroke="#dee2e6" stroke-width="1"/>
<text x="245.0" y="167.0" font-size="12.5" fill="#495057" text-anchor="middle">1   ProvisionCluster(idem_key, tenant, spec)</text>
<line x1="370" y1="220" x2="120" y2="220" stroke="#adb5bd" stroke-width="2.2" stroke-dasharray="7 5" marker-end="url(#arrow)"/>
<rect x="153.6" y="194.0" width="182.8" height="20" rx="5" fill="#ffffff" stroke="#dee2e6" stroke-width="1"/>
<text x="245.0" y="209.0" font-size="12.5" fill="#495057" text-anchor="middle">operation handle (async)</text>
<line x1="370" y1="262" x2="850" y2="262" stroke="#495057" stroke-width="2.2" marker-end="url(#arrow)"/>
<rect x="356.6" y="236.0" width="506.8" height="20" rx="5" fill="#ffffff" stroke="#dee2e6" stroke-width="1"/>
<text x="610.0" y="251.0" font-size="12.5" fill="#495057" text-anchor="middle">2   tenant onboarding (async): tenant + VRFs (fe/be) + segments + IRB</text>
<line x1="850" y1="304" x2="1080" y2="304" stroke="#adb5bd" stroke-width="2.2" marker-end="url(#arrow)"/>
<rect x="834.0" y="278.0" width="262.0" height="20" rx="5" fill="#ffffff" stroke="#dee2e6" stroke-width="1"/>
<text x="965.0" y="293.0" font-size="12.5" fill="#495057" text-anchor="middle">create tenant · VRFs · VLANs + IPAM</text>
<line x1="850" y1="346" x2="1300" y2="346" stroke="#adb5bd" stroke-width="2.2" marker-end="url(#arrow)"/>
<rect x="998.0" y="320.0" width="154.0" height="20" rx="5" fill="#ffffff" stroke="#dee2e6" stroke-width="1"/>
<text x="1075.0" y="335.0" font-size="12.5" fill="#495057" text-anchor="middle">configure fabric VRF</text>
<line x1="370" y1="554" x2="610" y2="554" stroke="#495057" stroke-width="2.2" marker-end="url(#arrow)"/>
<rect x="348.2" y="528.0" width="283.6" height="20" rx="5" fill="#ffffff" stroke="#dee2e6" stroke-width="1"/>
<text x="490.0" y="543.0" font-size="12.5" fill="#495057" text-anchor="middle">4   list available servers (free pool)</text>
<line x1="610" y1="596" x2="1080" y2="596" stroke="#adb5bd" stroke-width="2.2" marker-end="url(#arrow)"/>
<rect x="703.2" y="570.0" width="283.6" height="20" rx="5" fill="#ffffff" stroke="#dee2e6" stroke-width="1"/>
<text x="845.0" y="585.0" font-size="12.5" fill="#495057" text-anchor="middle">query dcim: role=compute · tenant=null</text>
<line x1="370" y1="716" x2="610" y2="716" stroke="#495057" stroke-width="2.2" marker-end="url(#arrow)"/>
<rect x="384.2" y="690.0" width="211.6" height="20" rx="5" fill="#ffffff" stroke="#dee2e6" stroke-width="1"/>
<text x="490.0" y="705.0" font-size="12.5" fill="#495057" text-anchor="middle">6   reserve nodes for tenant</text>
<line x1="610" y1="758" x2="1080" y2="758" stroke="#adb5bd" stroke-width="2.2" marker-end="url(#arrow)"/>
<rect x="735.6" y="732.0" width="218.8" height="20" rx="5" fill="#ffffff" stroke="#dee2e6" stroke-width="1"/>
<text x="845.0" y="747.0" font-size="12.5" fill="#495057" text-anchor="middle">write allocation — set tenant</text>
<line x1="370" y1="864" x2="610" y2="864" stroke="#495057" stroke-width="2.2" marker-end="url(#arrow)"/>
<rect x="359.0" y="838.0" width="262.0" height="20" rx="5" fill="#ffffff" stroke="#dee2e6" stroke-width="1"/>
<text x="490.0" y="853.0" font-size="12.5" fill="#495057" text-anchor="middle">8   fetch per-server hardware facts</text>
<line x1="610" y1="906" x2="1080" y2="906" stroke="#adb5bd" stroke-width="2.2" marker-end="url(#arrow)"/>
<rect x="591.6" y="880.0" width="506.8" height="20" rx="5" fill="#ffffff" stroke="#dee2e6" stroke-width="1"/>
<text x="845.0" y="895.0" font-size="12.5" fill="#495057" text-anchor="middle">dcim: BMC/IPMI IP + creds · bootstrap + RDMA/data MACs · switch ports</text>
<line x1="370" y1="948" x2="850" y2="948" stroke="#495057" stroke-width="2.2" marker-end="url(#arrow)"/>
<rect x="497.0" y="922.0" width="226.0" height="20" rx="5" fill="#ffffff" stroke="#dee2e6" stroke-width="1"/>
<text x="610.0" y="937.0" font-size="12.5" fill="#495057" text-anchor="middle">9   fetch scope network config</text>
<line x1="850" y1="990" x2="1080" y2="990" stroke="#adb5bd" stroke-width="2.2" marker-end="url(#arrow)"/>
<rect x="834.0" y="964.0" width="262.0" height="20" rx="5" fill="#ffffff" stroke="#dee2e6" stroke-width="1"/>
<text x="965.0" y="979.0" font-size="12.5" fill="#495057" text-anchor="middle">ipam: VRF · VLANs · IP ranges · MTU</text>
<line x1="370" y1="1032" x2="850" y2="1032" stroke="#495057" stroke-width="2.2" marker-end="url(#arrow)"/>
<rect x="468.2" y="1006.0" width="283.6" height="20" rx="5" fill="#ffffff" stroke="#dee2e6" stroke-width="1"/>
<text x="610.0" y="1021.0" font-size="12.5" fill="#495057" text-anchor="middle">10   attach node ports to tenant VLANs</text>
<line x1="850" y1="1074" x2="1300" y2="1074" stroke="#adb5bd" stroke-width="2.2" marker-end="url(#arrow)"/>
<rect x="980.0" y="1048.0" width="190.0" height="20" rx="5" fill="#ffffff" stroke="#dee2e6" stroke-width="1"/>
<text x="1075.0" y="1063.0" font-size="12.5" fill="#495057" text-anchor="middle">configure leaf data ports</text>
<line x1="370" y1="1194" x2="1530" y2="1194" stroke="#495057" stroke-width="2.2" marker-end="url(#arrow)"/>
<rect x="739.8" y="1168.0" width="420.4" height="20" rx="5" fill="#ffffff" stroke="#dee2e6" stroke-width="1"/>
<text x="950.0" y="1183.0" font-size="12.5" fill="#495057" text-anchor="middle">12   provision OS on nodes — BMC + bootstrap MAC from HIS</text>
<line x1="1530" y1="1236" x2="1770" y2="1236" stroke="#adb5bd" stroke-width="2.2" marker-end="url(#arrow)"/>
<rect x="1537.0" y="1210.0" width="226.0" height="20" rx="5" fill="#ffffff" stroke="#dee2e6" stroke-width="1"/>
<text x="1650.0" y="1225.0" font-size="12.5" fill="#495057" text-anchor="middle">IPMI power + PXE over OOB VLAN</text>
<line x1="370" y1="1278" x2="1530" y2="1278" stroke="#495057" stroke-width="2.2" marker-end="url(#arrow)"/>
<rect x="811.8" y="1252.0" width="276.4" height="20" rx="5" fill="#ffffff" stroke="#dee2e6" stroke-width="1"/>
<text x="950.0" y="1267.0" font-size="12.5" fill="#495057" text-anchor="middle">13   build K8s cluster (CP + workers)</text>
<line x1="370" y1="1320" x2="1530" y2="1320" stroke="#495057" stroke-width="2.2" marker-end="url(#arrow)"/>
<rect x="779.4" y="1294.0" width="341.2" height="20" rx="5" fill="#ffffff" stroke="#dee2e6" stroke-width="1"/>
<text x="950.0" y="1309.0" font-size="12.5" fill="#495057" text-anchor="middle">14   deploy AiFabrik addon (mgmt / monitoring)</text>
<line x1="370" y1="1364" x2="120" y2="1364" stroke="#495057" stroke-width="2.2" stroke-dasharray="7 5" marker-end="url(#arrow)"/>
<rect x="70.8" y="1338.0" width="348.4" height="20" rx="5" fill="#ffffff" stroke="#dee2e6" stroke-width="1"/>
<text x="245.0" y="1353.0" font-size="12.5" fill="#495057" text-anchor="middle">SUCCEEDED  ·  Frontend Platform records mapping</text>
<text x="980.0" y="38" font-size="26" font-weight="700" fill="#1e1e1e" text-anchor="middle">CPS — K8s Cluster Provisioning Workflow</text>
<text x="980.0" y="64" font-size="13" font-weight="400" fill="#868e96" text-anchor="middle">async · Frontend Platform polls the Operation   ·   orange = per-step compensation (rollback)   ·   on failure: pause → human review → resume or cancel + rollback  (transitional)</text>
<text x="384" y="278" font-size="11.5" font-weight="700" fill="#e8590c" text-anchor="start">compensate: offboard tenant / delete VRFs</text>
<text x="384" y="732" font-size="11.5" font-weight="700" fill="#e8590c" text-anchor="start">compensate: release</text>
<text x="384" y="1210" font-size="11.5" font-weight="700" fill="#e8590c" text-anchor="start">compensate: wipe / decommission</text>
<text x="384" y="1294" font-size="11.5" font-weight="700" fill="#e8590c" text-anchor="start">compensate: delete cluster</text>
<text x="980.0" y="1420" font-size="12.5" font-weight="400" fill="#868e96" text-anchor="middle">Storage (Weka), kubeconfig and client connectivity are still to be built — see 'To be included'.</text>
</svg>