<svg xmlns="http://www.w3.org/2000/svg" width="1560" height="1180" viewBox="0 0 1560 1180" font-family="'Excalifont','Virgil','Chalkboard SE','Comic Sans MS','Comic Neue',sans-serif">
<defs><marker id="arrow" viewBox="0 0 10 10" refX="9" refY="5" markerWidth="7" markerHeight="7" orient="auto-start-reverse"><path d="M0,0 L10,5 L0,10 L3,5 z" fill="#495057"/></marker><marker id="arrowS" viewBox="0 0 10 10" refX="1" refY="5" markerWidth="7" markerHeight="7" orient="auto-start-reverse"><path d="M10,0 L0,5 L10,10 L7,5 z" fill="#495057"/></marker></defs>
<rect x="0" y="0" width="1560" height="1180" fill="#ffffff"/>
<rect x="40" y="185" width="1010" height="700" rx="14" fill="#f8f9fa" stroke="#adb5bd" stroke-width="1.5" stroke-dasharray="none"/>
<text x="58" y="215" font-size="22" font-weight="700" fill="#1971c2">Management Plane — GKE</text>
<rect x="70" y="315" width="950" height="555" rx="14" fill="#f8f9fa" stroke="#adb5bd" stroke-width="1.5" stroke-dasharray="none"/>
<text x="88" y="345" font-size="22" font-weight="700" fill="#6741d9">Compute Provisioning Service (CPS)</text>
<rect x="1070" y="415" width="360" height="375" rx="14" fill="#f8f9fa" stroke="#adb5bd" stroke-width="1.5" stroke-dasharray="none"/>
<text x="1088" y="445" font-size="22" font-weight="700" fill="#e8590c">External — SaaS / other teams</text>
<rect x="40" y="930" width="1500" height="200" rx="14" fill="#f8f9fa" stroke="#adb5bd" stroke-width="1.5" stroke-dasharray="none"/>
<text x="58" y="960" font-size="22" font-weight="700" fill="#2f9e44">Site — NJ</text>
<line x1="40" y1="905" x2="1540" y2="905" stroke="#fa5252" stroke-width="2.5" stroke-dasharray="9 7" stroke-linecap="round"/>
<rect x="60" y="110" width="150" height="52" rx="10" fill="#e9ecef" stroke="#1e1e1e" stroke-width="2" stroke-dasharray="none"/>
<text x="135.0" y="132.8" font-size="15" font-weight="700" fill="#1e1e1e" text-anchor="middle">Tenant</text>
<text x="135.0" y="148.9" font-size="12.5" font-weight="400" fill="#495057" text-anchor="middle">portal user</text>
<rect x="120" y="240" width="250" height="58" rx="10" fill="#ffec99" stroke="#1e1e1e" stroke-width="2" stroke-dasharray="none"/>
<text x="245.0" y="265.8" font-size="15" font-weight="700" fill="#1e1e1e" text-anchor="middle">Portal / API</text>
<text x="245.0" y="281.9" font-size="12.5" font-weight="400" fill="#495057" text-anchor="middle">Add-Cluster form · auth</text>
<rect x="770" y="250" width="250" height="56" rx="10" fill="#96f2d7" stroke="#1e1e1e" stroke-width="2" stroke-dasharray="none"/>
<text x="895.0" y="274.8" font-size="15" font-weight="700" fill="#1e1e1e" text-anchor="middle">NetBox</text>
<text x="895.0" y="290.9" font-size="12.5" font-weight="400" fill="#495057" text-anchor="middle">Inventory SoT · DCIM/IPAM</text>
<rect x="150" y="360" width="260" height="60" rx="10" fill="#a5d8ff" stroke="#1e1e1e" stroke-width="2" stroke-dasharray="none"/>
<text x="280.0" y="386.8" font-size="15" font-weight="700" fill="#1e1e1e" text-anchor="middle">Request Intake API</text>
<text x="280.0" y="402.9" font-size="12.5" font-weight="400" fill="#495057" text-anchor="middle">validate · admit · quote</text>
<rect x="150" y="450" width="260" height="130" rx="10" fill="#d0bfff" stroke="#1e1e1e" stroke-width="2" stroke-dasharray="none"/>
<text x="280.0" y="503.2" font-size="15" font-weight="700" fill="#1e1e1e" text-anchor="middle">Orchestrator</text>
<text x="280.0" y="519.4" font-size="12.5" font-weight="400" fill="#495057" text-anchor="middle">workflow / saga engine</text>
<text x="280.0" y="536.4" font-size="12.5" font-weight="400" fill="#495057" text-anchor="middle">lifecycle state machine</text>
<rect x="150" y="610" width="260" height="60" rx="10" fill="#a5d8ff" stroke="#1e1e1e" stroke-width="2" stroke-dasharray="none"/>
<text x="280.0" y="636.8" font-size="15" font-weight="700" fill="#1e1e1e" text-anchor="middle">Cluster Catalog</text>
<text x="280.0" y="652.9" font-size="12.5" font-weight="400" fill="#495057" text-anchor="middle">state store / system of record</text>
<rect x="470" y="360" width="260" height="64" rx="10" fill="#a5d8ff" stroke="#1e1e1e" stroke-width="2" stroke-dasharray="none"/>
<text x="600.0" y="388.8" font-size="15" font-weight="700" fill="#1e1e1e" text-anchor="middle">Inventory &amp; Allocation</text>
<text x="600.0" y="404.9" font-size="12.5" font-weight="400" fill="#495057" text-anchor="middle">atomic reserve · capacity</text>
<rect x="470" y="440" width="260" height="64" rx="10" fill="#a5d8ff" stroke="#1e1e1e" stroke-width="2" stroke-dasharray="none"/>
<text x="600.0" y="468.8" font-size="15" font-weight="700" fill="#1e1e1e" text-anchor="middle">Network Orchestration</text>
<text x="600.0" y="484.9" font-size="12.5" font-weight="400" fill="#495057" text-anchor="middle">VRF flip · reachability · probe</text>
<rect x="470" y="520" width="260" height="64" rx="10" fill="#a5d8ff" stroke="#1e1e1e" stroke-width="2" stroke-dasharray="none"/>
<text x="600.0" y="548.8" font-size="15" font-weight="700" fill="#1e1e1e" text-anchor="middle">Provisioning Adapter</text>
<text x="600.0" y="564.9" font-size="12.5" font-weight="400" fill="#495057" text-anchor="middle">Rafay: bare-metal + K8s</text>
<rect x="470" y="600" width="260" height="64" rx="10" fill="#a5d8ff" stroke="#1e1e1e" stroke-width="2" stroke-dasharray="none"/>
<text x="600.0" y="628.8" font-size="15" font-weight="700" fill="#1e1e1e" text-anchor="middle">Storage Adapter</text>
<text x="600.0" y="644.9" font-size="12.5" font-weight="400" fill="#495057" text-anchor="middle">Weka filesystem + CSI</text>
<rect x="150" y="700" width="250" height="64" rx="10" fill="#e9ecef" stroke="#1e1e1e" stroke-width="2" stroke-dasharray="none"/>
<text x="275.0" y="728.8" font-size="15" font-weight="700" fill="#1e1e1e" text-anchor="middle">Identity &amp; Tenancy</text>
<text x="275.0" y="744.9" font-size="12.5" font-weight="400" fill="#495057" text-anchor="middle">org → project → cluster · RBAC</text>
<rect x="420" y="700" width="230" height="64" rx="10" fill="#e9ecef" stroke="#1e1e1e" stroke-width="2" stroke-dasharray="none"/>
<text x="535.0" y="728.8" font-size="15" font-weight="700" fill="#1e1e1e" text-anchor="middle">Metering &amp; Billing</text>
<text x="535.0" y="744.9" font-size="12.5" font-weight="400" fill="#495057" text-anchor="middle">usage → invoices</text>
<rect x="680" y="700" width="320" height="64" rx="10" fill="#e9ecef" stroke="#1e1e1e" stroke-width="2" stroke-dasharray="none"/>
<text x="840.0" y="728.8" font-size="15" font-weight="700" fill="#1e1e1e" text-anchor="middle">Observability &amp; Audit</text>
<text x="840.0" y="744.9" font-size="12.5" font-weight="400" fill="#495057" text-anchor="middle">logs · metrics · traces · audit</text>
<rect x="1090" y="440" width="320" height="64" rx="10" fill="#ffd8a8" stroke="#1e1e1e" stroke-width="2" stroke-dasharray="none"/>
<text x="1250.0" y="468.8" font-size="15" font-weight="700" fill="#1e1e1e" text-anchor="middle">Networking Team API</text>
<text x="1250.0" y="484.9" font-size="12.5" font-weight="400" fill="#495057" text-anchor="middle">VRF lifecycle → Juniper Apstra</text>
<rect x="1090" y="520" width="320" height="64" rx="10" fill="#ffd8a8" stroke="#1e1e1e" stroke-width="2" stroke-dasharray="none"/>
<text x="1250.0" y="548.8" font-size="15" font-weight="700" fill="#1e1e1e" text-anchor="middle">Rafay Controller</text>
<text x="1250.0" y="564.9" font-size="12.5" font-weight="400" fill="#495057" text-anchor="middle">SaaS · BM + K8s lifecycle</text>
<rect x="1090" y="600" width="320" height="64" rx="10" fill="#ffd8a8" stroke="#1e1e1e" stroke-width="2" stroke-dasharray="none"/>
<text x="1250.0" y="628.8" font-size="15" font-weight="700" fill="#1e1e1e" text-anchor="middle">Weka Control Plane</text>
<text x="1250.0" y="644.9" font-size="12.5" font-weight="400" fill="#495057" text-anchor="middle">filesystem / quota · org · access</text>
<rect x="1090" y="700" width="320" height="64" rx="10" fill="#ffffff" stroke="#1e1e1e" stroke-width="2" stroke-dasharray="7 5"/>
<text x="1250.0" y="728.8" font-size="15" font-weight="700" fill="#1e1e1e" text-anchor="middle">Tenant API Access</text>
<text x="1250.0" y="744.9" font-size="12.5" font-weight="400" fill="#495057" text-anchor="middle">Rafay ZTKA — OPEN ITEM</text>
<rect x="90" y="995" width="240" height="72" rx="10" fill="#b2f2bb" stroke="#1e1e1e" stroke-width="2" stroke-dasharray="none"/>
<text x="210.0" y="1027.8" font-size="15" font-weight="700" fill="#1e1e1e" text-anchor="middle">GPU Servers — B300</text>
<text x="210.0" y="1043.9" font-size="12.5" font-weight="400" fill="#495057" text-anchor="middle">tenant workers + Weka NVMe</text>
<rect x="350" y="995" width="220" height="72" rx="10" fill="#b2f2bb" stroke="#1e1e1e" stroke-width="2" stroke-dasharray="none"/>
<text x="460.0" y="1027.8" font-size="15" font-weight="700" fill="#1e1e1e" text-anchor="middle">CPU Servers</text>
<text x="460.0" y="1043.9" font-size="12.5" font-weight="400" fill="#495057" text-anchor="middle">tenant ctrl planes + Weka</text>
<rect x="590" y="995" width="190" height="72" rx="10" fill="#b2f2bb" stroke="#1e1e1e" stroke-width="2" stroke-dasharray="none"/>
<text x="685.0" y="1027.8" font-size="15" font-weight="700" fill="#1e1e1e" text-anchor="middle">QFX Fabric</text>
<text x="685.0" y="1043.9" font-size="12.5" font-weight="400" fill="#495057" text-anchor="middle">backend RDMA + frontend</text>
<rect x="840" y="995" width="190" height="72" rx="10" fill="#b2f2bb" stroke="#1e1e1e" stroke-width="2" stroke-dasharray="none"/>
<text x="935.0" y="1027.8" font-size="15" font-weight="700" fill="#1e1e1e" text-anchor="middle">Rafay Connector</text>
<text x="935.0" y="1043.9" font-size="12.5" font-weight="400" fill="#495057" text-anchor="middle">provisioning agent</text>
<rect x="1050" y="995" width="170" height="72" rx="10" fill="#b2f2bb" stroke="#1e1e1e" stroke-width="2" stroke-dasharray="none"/>
<text x="1135.0" y="1027.8" font-size="15" font-weight="700" fill="#1e1e1e" text-anchor="middle">Juniper Apstra</text>
<text x="1135.0" y="1043.9" font-size="12.5" font-weight="400" fill="#495057" text-anchor="middle">fabric controller</text>
<rect x="1245" y="995" width="180" height="72" rx="10" fill="#96f2d7" stroke="#1e1e1e" stroke-width="2" stroke-dasharray="none"/>
<text x="1335.0" y="1027.8" font-size="15" font-weight="700" fill="#1e1e1e" text-anchor="middle">Weka Cluster</text>
<text x="1335.0" y="1043.9" font-size="12.5" font-weight="400" fill="#495057" text-anchor="middle">disaggregated NVMe</text>
<line x1="135.0" y1="162" x2="245.0" y2="240" stroke="#495057" stroke-width="2.2" marker-end="url(#arrow)"/>
<line x1="245.0" y1="298" x2="280.0" y2="360" stroke="#495057" stroke-width="2.2" marker-end="url(#arrow)"/>
<line x1="280.0" y1="420" x2="280.0" y2="450" stroke="#495057" stroke-width="2.2" marker-end="url(#arrow)"/>
<line x1="280.0" y1="580" x2="280.0" y2="610" stroke="#495057" stroke-width="2.2" marker-start="url(#arrowS)" marker-end="url(#arrow)"/>
<rect x="239.0" y="584.0" width="82.0" height="20" rx="5" fill="#ffffff" stroke="#dee2e6" stroke-width="1"/>
<text x="280.0" y="599.0" font-size="12.5" fill="#495057" text-anchor="middle">read/write</text>
<line x1="410" y1="515.0" x2="470" y2="392.0" stroke="#495057" stroke-width="2.2" marker-end="url(#arrow)"/>
<line x1="410" y1="515.0" x2="470" y2="472.0" stroke="#495057" stroke-width="2.2" marker-end="url(#arrow)"/>
<line x1="410" y1="515.0" x2="470" y2="552.0" stroke="#495057" stroke-width="2.2" marker-end="url(#arrow)"/>
<line x1="410" y1="515.0" x2="470" y2="632.0" stroke="#495057" stroke-width="2.2" marker-end="url(#arrow)"/>
<line x1="730" y1="392.0" x2="895.0" y2="306" stroke="#495057" stroke-width="2.2" marker-end="url(#arrow)"/>
<rect x="782.3" y="338.0" width="60.4" height="20" rx="5" fill="#ffffff" stroke="#dee2e6" stroke-width="1"/>
<text x="812.5" y="353.0" font-size="12.5" fill="#495057" text-anchor="middle">reserve</text>
<line x1="730" y1="472.0" x2="1090" y2="472.0" stroke="#495057" stroke-width="2.2" marker-end="url(#arrow)"/>
<rect x="879.8" y="461.0" width="60.4" height="20" rx="5" fill="#ffffff" stroke="#dee2e6" stroke-width="1"/>
<text x="910.0" y="476.0" font-size="12.5" fill="#495057" text-anchor="middle">VRF ops</text>
<line x1="730" y1="552.0" x2="1090" y2="552.0" stroke="#495057" stroke-width="2.2" marker-end="url(#arrow)"/>
<rect x="872.6" y="541.0" width="74.8" height="20" rx="5" fill="#ffffff" stroke="#dee2e6" stroke-width="1"/>
<text x="910.0" y="556.0" font-size="12.5" fill="#495057" text-anchor="middle">provision</text>
<line x1="730" y1="632.0" x2="1090" y2="632.0" stroke="#495057" stroke-width="2.2" marker-end="url(#arrow)"/>
<rect x="865.4" y="621.0" width="89.2" height="20" rx="5" fill="#ffffff" stroke="#dee2e6" stroke-width="1"/>
<text x="910.0" y="636.0" font-size="12.5" fill="#495057" text-anchor="middle">fs + access</text>
<polyline points="1410.0,472.0 1520.0,472.0 1520.0,940.0 1135.0,940.0 1135.0,995.0" fill="none" stroke="#495057" stroke-width="2.2" stroke-linejoin="round" stroke-linecap="round" marker-end="url(#arrow)" />
<polyline points="1410.0,552.0 1490.0,552.0 1490.0,912.0 935.0,912.0 935.0,995.0" fill="none" stroke="#495057" stroke-width="2.2" stroke-linejoin="round" stroke-linecap="round" marker-end="url(#arrow)" />
<polyline points="1410.0,632.0 1455.0,632.0 1455.0,968.0 1335.0,968.0 1335.0,995.0" fill="none" stroke="#495057" stroke-width="2.2" stroke-linejoin="round" stroke-linecap="round" marker-end="url(#arrow)" />
<text x="780.0" y="38" font-size="26" font-weight="700" fill="#1e1e1e" text-anchor="middle">Compute Provisioning Service (CPS) — System Components</text>
<text x="780.0" y="64" font-size="14" font-weight="400" fill="#868e96" text-anchor="middle">single site (us-east-1 / NJ)  ·  per-tenant dedicated GPU nodes + dedicated K8s control plane</text>
<text x="780.0" y="86" font-size="12.5" font-weight="400" fill="#adb5bd" text-anchor="middle">blue = CPS service   violet = orchestrator   gray = cross-cutting   orange = external dependency   green = site substrate   teal = inventory / storage</text>
<text x="780.0" y="925" font-size="13" font-weight="700" fill="#fa5252" text-anchor="middle">— VPN tunnel —   cloud above / site (NJ) below</text>
<text x="780.0" y="1118" font-size="12.5" font-weight="400" fill="#868e96" text-anchor="middle">(fabric &amp; storage wiring detailed in the interface / VRF diagram)</text>
</svg>